PathFileType	4	(x/y/z)	S05_PSF_T01
DataRate	CameraRate	NumFrames	NumMarkers	Units	OrigDataRate	OrigDataStartFrame	OrigNumFrames
240	240	11	50	mm	240	214	427
Frame#	Time	Sternum			R.Acromium			L.Acromium			Top.Head			R.ASIS			L.ASIS			R.PSIS			L.PSIS			R.Great.Tro			L.Great.Tro			R.Iliac.Crest			L.Iliac.Crest			V.Sacral			R.Thigh.Upper.Post			R.Thigh.Lower.Ant			R.Thigh.Lower.Post			R.Thigh.Upper.Ant			R.Knee.Lat			R.Knee.Med			R.Shank.Upper.Post			R.Shank.Lower.Ant			R.Shank.Lower.Post			R.Shank.Upper.Ant			R.Ankle.Lat			R.Ankle.Med			R.Heel.Upper			R.Heel.Med			R.Heel.Lat			R.Toe.Lat			R.Toe.Med			R.Toe.Tip			L.Thigh.Upper.Post			L.Thigh.Lower.Ant			L.Thigh.Lower.Post			L.Thigh.Upper.Ant			L.Knee.Lat			L.Shank.Upper.Post			L.Shank.Lower.Ant			L.Shank.Lower.Post			L.Shank.Upper.Ant			L.Ankle.Lat			L.Ankle.Med			L.Heel.Upper			L.Heel.Med			L.Heel.Lat			L.Toe.Lat			L.Toe.Med			L.Toe.Tip			Cervical.Spine			Back			
		X1	Y1	Z1	X2	Y2	Z2	X3	Y3	Z3	X4	Y4	Z4	X5	Y5	Z5	X6	Y6	Z6	X7	Y7	Z7	X8	Y8	Z8	X9	Y9	Z9	X10	Y10	Z10	X11	Y11	Z11	X12	Y12	Z12	X13	Y13	Z13	X14	Y14	Z14	X15	Y15	Z15	X16	Y16	Z16	X17	Y17	Z17	X18	Y18	Z18	X19	Y19	Z19	X20	Y20	Z20	X21	Y21	Z21	X22	Y22	Z22	X23	Y23	Z23	X24	Y24	Z24	X25	Y25	Z25	X26	Y26	Z26	X27	Y27	Z27	X28	Y28	Z28	X29	Y29	Z29	X30	Y30	Z30	X31	Y31	Z31	X32	Y32	Z32	X33	Y33	Z33	X34	Y34	Z34	X35	Y35	Z35	X36	Y36	Z36	X37	Y37	Z37	X38	Y38	Z38	X39	Y39	Z39	X40	Y40	Z40	X41	Y41	Z41	X42	Y42	Z42	X43	Y43	Z43	X44	Y44	Z44	X45	Y45	Z45	X46	Y46	Z46	X47	Y47	Z47	X48	Y48	Z48	X49	Y49	Z49	X50	Y50	Z50	

214	0.8875	-400.93	1267.9	323.22	-482	1522.5	493.72	-508.62	1550.5	168.01	-483.69	1838	330.84	-464.22	1019.1	451.65	-457.26	1022.9	201.17	-664.03	1032.7	358.96	-659.72	1030.3	267.58	-545.38	934.52	508.64	-533.33	936.62	122.07	-554.88	1099.8	487.55	-550.1	1099.2	151.9	-674.81	996.52	326.39	-482.59	715.37	498.17	-426.12	647.96	448.1	-492.11	628.49	472.91	-421.68	733.77	470.48	-493.58	530.87	450.8	-483.32	519.96	319.69	-576.75	291.72	431.61	-516.68	224.82	432.19	-578.04	216.77	413.56	-513.67	301.4	450.41	-530.76	120.72	411.8	-520.67	146.56	326.93	-598.79	73.438	347.36	-587.15	42.284	319.38	-592.52	45.249	384.25	-430.76	35.642	447.24	-389.35	45.056	329.1	-329.53	64.057	378.17	-447.98	712.82	116.09	-348.07	670.1	136.33	-405.91	627.32	126.82	-381.92	754.32	126.31	-380.01	548.09	133.63	-542.73	435.57	148.51	-527.11	348.42	144.87	-588.19	379.87	166.16	-485.78	405.21	132.2	-654.62	256.96	175.24	-608.44	243.47	256.16	-724.1	254.76	238.27	-726.39	227.2	270.1	-743.25	234.34	210.75	-617.75	118.14	132.55	-576.04	107.3	244.2	-527.83	79.43	182.1	-541.73	1575.5	338.64	-659.4	1302.1	330.61
215	0.89167	-395.84	1268.4	323.43	-476.72	1523.1	493.81	-503.55	1550.8	168.1	-478.37	1838.3	330.61	-459.4	1019.3	452.13	-452	1023.4	201.61	-659.02	1033.1	358.96	-654.58	1030.7	267.57	-541.03	934.8	508.76	-527.64	937.3	122.19	-549.94	1100.2	487.78	-544.89	1099.7	152.13	-669.76	996.95	326.36	-479.75	715.31	498.35	-423.52	647.56	448.58	-489.79	628.51	472.98	-418.58	733.29	470.92	-491.97	530.86	450.81	-481.36	519.89	319.69	-576.02	292.05	431.48	-516.2	224.94	432.18	-577.55	217.11	413.4	-513	301.47	450.29	-530.53	120.81	411.75	-520.34	146.65	326.86	-598.71	73.581	347.33	-587.18	42.366	319.32	-592.46	45.392	384.22	-430.73	35.564	447.27	-389.24	44.902	329.08	-329.41	63.743	378.19	-440.56	714.15	116.11	-340.39	672.22	136.91	-397.86	628.97	127.02	-374.89	756.17	126.78	-371.56	549.66	134.22	-532.46	434	148.95	-515.14	347.2	145.26	-576.81	377.41	166.52	-474.97	404.77	132.63	-640.76	253.1	175.4	-594.36	240.44	256.32	-710.42	249.34	238.46	-712	221.55	270.15	-729.04	228.54	210.88	-600.86	115.35	132.44	-558.98	105.18	244.1	-510.11	78.555	181.93	-536.54	1575.9	338.73	-654.24	1302.5	330.97
216	0.89583	-390.73	1268.9	323.63	-471.45	1523.7	493.89	-498.49	1551.1	168.18	-473.05	1838.7	330.36	-454.58	1019.4	452.59	-446.72	1023.9	202.04	-654.01	1033.5	358.96	-649.43	1031	267.56	-536.69	935.05	508.87	-521.96	937.92	122.3	-544.97	1100.5	488	-539.68	1100.2	152.35	-664.7	997.33	326.32	-476.91	715.25	498.52	-420.93	647.15	449.01	-487.45	628.53	473.04	-415.48	732.81	471.35	-490.35	530.85	450.82	-479.4	519.82	319.67	-575.29	292.38	431.34	-515.73	225.05	432.17	-577.05	217.45	413.23	-512.34	301.54	450.16	-530.3	120.9	411.69	-520.03	146.74	326.77	-598.63	73.728	347.29	-587.23	42.452	319.26	-592.39	45.539	384.19	-430.7	35.489	447.28	-389.14	44.746	329.05	-329.28	63.421	378.22	-433.21	715.42	116.13	-332.82	674.25	137.49	-389.93	630.57	127.23	-367.93	757.94	127.25	-363.26	551.15	134.8	-522.24	432.29	149.38	-503.16	345.89	145.64	-565.42	374.81	166.88	-464.2	404.23	133.04	-626.78	249.11	175.56	-580.18	237.31	256.46	-696.58	243.76	238.64	-697.42	215.77	270.2	-714.66	222.57	211.01	-583.81	112.5	132.34	-541.77	103.04	244	-492.25	77.687	181.76	-531.35	1576.2	338.81	-649.08	1302.9	331.33
217	0.9	-385.6	1269.4	323.82	-466.18	1524.2	493.96	-493.43	1551.4	168.25	-467.74	1839	330.09	-449.76	1019.5	453.03	-441.44	1024.3	202.46	-649	1033.9	358.94	-644.27	1031.4	267.54	-532.35	935.28	508.97	-516.28	938.5	122.41	-540	1100.8	488.21	-534.45	1100.6	152.56	-659.64	997.69	326.27	-474.06	715.18	498.68	-418.35	646.71	449.37	-485.11	628.54	473.09	-412.39	732.32	471.77	-488.73	530.84	450.82	-477.43	519.75	319.66	-574.55	292.71	431.19	-515.25	225.17	432.14	-576.55	217.8	413.06	-511.68	301.61	450.01	-530.06	121	411.63	-519.71	146.83	326.69	-598.54	73.878	347.24	-587.27	42.54	319.2	-592.32	45.692	384.16	-430.66	35.419	447.3	-389.02	44.588	329.02	-329.16	63.09	378.24	-425.94	716.64	116.16	-325.35	676.18	138.05	-382.12	632.09	127.44	-361.04	759.62	127.7	-355.1	552.57	135.37	-512.06	430.44	149.8	-491.18	344.47	146.01	-554	372.08	167.23	-453.47	403.59	133.45	-612.69	245.01	175.71	-565.9	234.09	256.59	-682.56	238.03	238.82	-682.65	209.86	270.26	-700.08	216.46	211.15	-566.62	109.62	132.23	-524.39	100.89	243.89	-474.28	76.84	181.58	-526.16	1576.6	338.88	-643.92	1303.2	331.67
218	0.90417	-380.47	1269.8	324	-460.92	1524.7	494.01	-488.38	1551.6	168.31	-462.44	1839.3	329.8	-444.94	1019.5	453.46	-436.16	1024.7	202.87	-643.98	1034.3	358.92	-639.11	1031.6	267.52	-528.01	935.49	509.06	-510.61	939.03	122.51	-535.02	1101	488.41	-529.21	1100.9	152.77	-654.58	998.01	326.22	-471.21	715.11	498.82	-415.77	646.26	449.67	-482.75	628.54	473.13	-409.29	731.83	472.18	-487.1	530.82	450.81	-475.46	519.67	319.64	-573.8	293.05	431.04	-514.76	225.28	432.12	-576.03	218.14	412.87	-511.02	301.69	449.85	-529.81	121.1	411.56	-519.39	146.92	326.59	-598.44	74.03	347.19	-587.32	42.633	319.13	-592.24	45.85	384.12	-430.63	35.353	447.32	-388.91	44.427	328.99	-329.03	62.751	378.26	-418.77	717.79	116.2	-317.99	678.01	138.6	-374.44	633.53	127.66	-354.21	761.22	128.14	-347.09	553.92	135.94	-501.91	428.46	150.21	-479.19	342.97	146.36	-542.57	369.23	167.57	-442.78	402.87	133.84	-598.48	240.81	175.86	-551.51	230.79	256.71	-668.35	232.17	239	-667.69	203.85	270.32	-685.33	210.22	211.29	-549.28	106.71	132.12	-506.87	98.749	243.78	-456.18	76.027	181.39	-520.97	1576.8	338.93	-638.75	1303.5	332.01
219	0.90833	-375.33	1270.2	324.17	-455.65	1525.1	494.06	-483.34	1551.8	168.35	-457.15	1839.5	329.49	-440.11	1019.6	453.87	-430.87	1025	203.26	-638.96	1034.6	358.89	-633.94	1031.9	267.48	-523.66	935.67	509.13	-504.94	939.51	122.61	-530.02	1101.3	488.6	-523.95	1101.2	152.97	-649.51	998.29	326.16	-468.35	715.02	498.95	-413.21	645.78	449.89	-480.37	628.54	473.16	-406.19	731.33	472.59	-485.45	530.8	450.8	-473.47	519.58	319.61	-573.03	293.38	430.89	-514.27	225.4	432.08	-575.5	218.49	412.68	-510.35	301.76	449.68	-529.55	121.2	411.49	-519.08	147.01	326.49	-598.33	74.185	347.14	-587.37	42.73	319.06	-592.16	46.013	384.08	-430.59	35.292	447.33	-388.78	44.265	328.95	-328.89	62.404	378.27	-411.68	718.88	116.25	-310.73	679.73	139.14	-366.88	634.9	127.88	-347.45	762.71	128.58	-339.21	555.17	136.49	-491.79	426.34	150.62	-467.2	341.39	146.7	-531.11	366.24	167.91	-432.14	402.06	134.21	-584.16	236.51	176.02	-537.01	227.43	256.81	-653.95	226.18	239.19	-652.53	197.73	270.4	-670.37	203.86	211.44	-531.8	103.81	132	-489.19	96.632	243.65	-437.98	75.262	181.18	-515.78	1577.1	338.97	-633.57	1303.8	332.32
220	0.9125	-370.17	1270.5	324.34	-450.39	1525.5	494.09	-478.3	1552	168.38	-451.87	1839.7	329.16	-435.28	1019.6	454.27	-425.58	1025.3	203.65	-633.93	1034.9	358.84	-628.76	1032.1	267.44	-519.32	935.84	509.2	-499.27	939.94	122.69	-525.02	1101.5	488.78	-518.67	1101.5	153.16	-644.43	998.55	326.1	-465.47	714.94	499.06	-410.64	645.28	450.05	-477.96	628.53	473.18	-403.07	730.82	472.98	-483.78	530.77	450.78	-471.48	519.49	319.58	-572.24	293.72	430.74	-513.76	225.51	432.03	-574.95	218.83	412.49	-509.67	301.84	449.5	-529.29	121.3	411.42	-518.77	147.1	326.37	-598.21	74.34	347.08	-587.42	42.833	318.99	-592.08	46.182	384.04	-430.56	35.235	447.33	-388.66	44.099	328.91	-328.76	62.05	378.28	-404.69	719.9	116.31	-303.59	681.33	139.67	-359.46	636.17	128.12	-340.78	764.11	129	-331.49	556.34	137.03	-481.69	424.09	151.01	-455.2	339.74	147.02	-519.63	363.14	168.25	-421.53	401.16	134.57	-569.72	232.15	176.18	-522.39	224.02	256.9	-639.36	220.08	239.38	-637.17	191.54	270.48	-655.22	197.4	211.6	-514.19	100.91	131.87	-471.37	94.554	243.51	-419.67	74.561	180.95	-510.59	1577.3	339	-628.39	1304	332.62
221	0.91667	-365	1270.8	324.5	-445.13	1525.9	494.11	-473.26	1552.1	168.4	-446.59	1839.9	328.82	-430.45	1019.5	454.65	-420.3	1025.6	204.04	-628.9	1035.1	358.79	-623.58	1032.2	267.39	-514.96	935.98	509.27	-493.62	940.32	122.78	-520	1101.6	488.95	-513.37	1101.7	153.34	-639.35	998.77	326.02	-462.57	714.84	499.16	-408.08	644.77	450.14	-475.54	628.51	473.2	-399.94	730.31	473.35	-482.09	530.74	450.76	-469.49	519.39	319.54	-571.42	294.04	430.59	-513.23	225.62	431.98	-574.37	219.17	412.3	-508.96	301.92	449.33	-529.02	121.41	411.33	-518.46	147.19	326.25	-598.09	74.497	347.01	-587.47	42.94	318.92	-591.99	46.357	383.99	-430.52	35.181	447.34	-388.53	43.931	328.86	-328.63	61.688	378.29	-397.8	720.84	116.39	-296.58	682.82	140.19	-352.18	637.35	128.37	-334.19	765.39	129.43	-323.91	557.41	137.56	-471.62	421.71	151.39	-443.2	338.01	147.33	-508.13	359.93	168.58	-410.97	400.17	134.92	-555.19	227.73	176.34	-507.66	220.57	256.98	-624.56	213.88	239.57	-621.6	185.29	270.58	-639.88	190.85	211.77	-496.45	98.039	131.73	-453.41	92.529	243.35	-401.27	73.94	180.7	-505.4	1577.5	339.01	-623.2	1304.2	332.9
222	0.92083	-359.83	1271	324.66	-439.87	1526.2	494.13	-468.21	1552.2	168.41	-441.33	1840.1	328.46	-425.61	1019.4	455.02	-415.03	1025.7	204.42	-623.85	1035.3	358.73	-618.38	1032.4	267.33	-510.6	936.09	509.32	-487.96	940.65	122.85	-514.97	1101.8	489.11	-508.05	1101.8	153.51	-634.25	998.96	325.93	-459.66	714.74	499.24	-405.5	644.25	450.19	-473.08	628.49	473.2	-396.8	729.79	473.7	-480.37	530.71	450.73	-467.49	519.29	319.5	-570.58	294.37	430.45	-512.68	225.73	431.92	-573.77	219.51	412.12	-508.23	302	449.16	-528.75	121.51	411.25	-518.15	147.29	326.13	-597.97	74.656	346.93	-587.51	43.051	318.86	-591.9	46.537	383.94	-430.48	35.13	447.34	-388.4	43.76	328.81	-328.49	61.319	378.3	-391.02	721.69	116.5	-289.68	684.18	140.71	-345.04	638.43	128.64	-327.68	766.57	129.84	-316.49	558.38	138.08	-461.57	419.21	151.77	-431.2	336.21	147.62	-496.6	356.61	168.91	-400.46	399.11	135.24	-540.54	223.26	176.51	-492.81	217.1	257.05	-609.56	207.59	239.77	-605.83	178.99	270.68	-624.32	184.24	211.94	-478.6	95.212	131.56	-435.31	90.574	243.17	-382.8	73.411	180.41	-500.21	1577.6	339.01	-618	1304.3	333.16
223	0.925	-354.65	1271.2	324.81	-434.6	1526.5	494.13	-463.16	1552.2	168.41	-436.07	1840.2	328.09	-420.77	1019.3	455.37	-409.76	1025.8	204.79	-618.8	1035.5	358.66	-613.17	1032.5	267.26	-506.23	936.19	509.37	-482.32	940.92	122.92	-509.93	1101.8	489.25	-502.71	1102	153.67	-629.15	999.13	325.84	-456.72	714.63	499.31	-402.92	643.72	450.19	-470.6	628.46	473.2	-393.65	729.26	474.04	-478.63	530.67	450.7	-465.49	519.17	319.45	-569.71	294.68	430.32	-512.1	225.84	431.86	-573.15	219.85	411.95	-507.45	302.08	448.99	-528.46	121.62	411.16	-517.83	147.38	325.99	-597.84	74.816	346.85	-587.53	43.166	318.8	-591.8	46.722	383.89	-430.44	35.082	447.33	-388.27	43.588	328.76	-328.35	60.944	378.3	-384.35	722.46	116.62	-282.92	685.4	141.21	-338.04	639.4	128.92	-321.27	767.62	130.26	-309.21	559.25	138.58	-451.53	416.6	152.14	-419.2	334.36	147.9	-485.04	353.2	169.24	-389.98	397.97	135.55	-525.78	218.77	176.68	-477.84	213.61	257.1	-594.34	201.24	239.97	-589.84	172.65	270.79	-608.56	177.58	212.12	-460.62	92.443	131.38	-417.08	88.705	242.96	-364.24	72.992	180.08	-495.01	1577.7	339	-612.8	1304.4	333.4
224	0.92917	-349.45	1271.3	324.96	-429.34	1526.7	494.13	-458.11	1552.2	168.39	-430.82	1840.2	327.7	-415.92	1019.2	455.71	-404.48	1025.9	205.15	-613.74	1035.7	358.58	-607.96	1032.6	267.18	-501.85	936.26	509.42	-476.68	941.14	122.99	-504.88	1101.9	489.38	-497.35	1102	153.82	-624.04	999.27	325.73	-453.77	714.51	499.36	-400.31	643.18	450.16	-468.09	628.42	473.19	-390.47	728.72	474.35	-476.84	530.62	450.66	-463.47	519.05	319.39	-568.82	295	430.19	-511.49	225.94	431.79	-572.5	220.18	411.78	-506.64	302.16	448.83	-528.17	121.74	411.07	-517.5	147.48	325.85	-597.71	74.978	346.76	-587.52	43.284	318.74	-591.71	46.912	383.84	-430.4	35.035	447.32	-388.15	43.414	328.71	-328.21	60.563	378.3	-377.8	723.13	116.76	-276.28	686.49	141.71	-331.2	640.26	129.21	-314.95	768.56	130.67	-302.09	560.01	139.08	-441.51	413.87	152.49	-407.19	332.46	148.16	-473.44	349.69	169.56	-379.54	396.75	135.85	-510.91	214.26	176.85	-462.75	210.12	257.15	-578.92	194.83	240.17	-573.64	166.3	270.92	-592.59	170.88	212.3	-442.55	89.749	131.18	-398.74	86.937	242.72	-345.63	72.696	179.71	-489.8	1577.8	338.98	-607.58	1304.5	333.61
